<svg width="30" height="30" viewBox="0 0 30 30" fill="#939598" xmlns="http://www.w3.org/2000/svg">
<path d="M27.3633 12.3633C26.2175 12.3633 25.2406 13.0982 24.8776 14.1211H22.8609C22.6918 12.5977 22.0885 11.2035 21.1775 10.0655L22.5648 8.67828C23.5453 9.14543 24.7547 8.97423 25.5652 8.16376C26.5931 7.13562 26.5931 5.46295 25.5652 4.43481C24.5373 3.40691 22.8644 3.40668 21.8362 4.43481C21.026 5.24506 20.855 6.45538 21.3217 7.43523L19.9345 8.82248C18.7965 7.91153 17.4023 7.3082 15.8789 7.13905V5.12238C16.902 4.75937 17.6367 3.7825 17.6367 2.63672C17.6367 1.18286 16.4539 0 15 0C13.5461 0 12.3633 1.18286 12.3633 2.63672C12.3633 3.7825 13.098 4.75937 14.1211 5.12238V7.13905C12.5977 7.3082 11.2035 7.91153 10.0655 8.82248L8.67828 7.43546C9.14497 6.45538 8.97377 5.24506 8.16376 4.43481C7.13562 3.40691 5.46295 3.40691 4.43481 4.43481C3.40691 5.46295 3.40691 7.13562 4.43481 8.16376C4.94888 8.67783 5.62408 8.93486 6.29929 8.93486C6.68816 8.93486 7.07703 8.84903 7.43523 8.67828L8.82248 10.0655C7.91153 11.2035 7.3082 12.5977 7.13905 14.1211H5.12238C4.75937 13.0982 3.7825 12.3633 2.63672 12.3633C1.18286 12.3633 0 13.5461 0 15C0 16.4539 1.18286 17.6367 2.63672 17.6367C3.7825 17.6367 4.75937 16.9018 5.12238 15.8789H7.13905C7.3082 17.4023 7.91153 18.7965 8.82248 19.9345L7.43523 21.3217C6.45538 20.8548 5.24506 21.026 4.43481 21.8362C3.40691 22.8644 3.40691 24.537 4.43481 25.5652C5.46272 26.5931 7.13562 26.5931 8.16376 25.5652C8.974 24.7549 9.14497 23.5444 8.67828 22.5645L10.0655 21.1775C11.2354 22.1139 12.6363 22.6962 14.1211 22.8609V24.8776C13.098 25.2406 12.3633 26.2175 12.3633 27.3633C12.3633 28.8171 13.5461 30 15 30C16.4539 30 17.6367 28.8171 17.6367 27.3633C17.6367 26.2175 16.902 25.2406 15.8789 24.8776V22.8609C17.3655 22.6959 18.7663 22.1127 19.9345 21.1775L21.3217 22.5645C20.855 23.5446 21.0262 24.7549 21.8362 25.5652C22.8644 26.5931 24.537 26.5933 25.5652 25.5652C26.5931 24.537 26.5931 22.8644 25.5652 21.8362C24.7549 21.0262 23.5446 20.8548 22.5648 21.3217L21.1775 19.9347C22.0885 18.7965 22.6918 17.4023 22.8609 15.8789H24.8776C25.2406 16.9018 26.2175 17.6367 27.3633 17.6367C28.8171 17.6367 30 16.4539 30 15C30 13.5461 28.8171 12.3633 27.3633 12.3633V12.3633ZM23.0793 5.67787C23.4226 5.33432 23.9788 5.33409 24.3221 5.67787C24.665 6.02051 24.665 6.57806 24.3224 6.9207C23.9795 7.26357 23.4219 7.26357 23.0793 6.9207C22.7357 6.57715 22.7357 6.02142 23.0793 5.67787ZM6.9207 6.9207C6.57806 7.26357 6.02028 7.26334 5.67787 6.9207C5.33501 6.57806 5.33501 6.02051 5.67764 5.67764C6.02119 5.33432 6.57715 5.33409 6.9207 5.67764C7.26425 6.02142 7.26425 6.57715 6.9207 6.9207ZM2.63672 15.8789C2.15218 15.8789 1.75781 15.4845 1.75781 15C1.75781 14.5155 2.15218 14.1211 2.63672 14.1211C3.12126 14.1211 3.51562 14.5155 3.51562 15C3.51562 15.4845 3.12126 15.8789 2.63672 15.8789ZM6.9207 24.3221C6.57738 24.6657 6.02119 24.6659 5.67787 24.3221C5.33501 23.9795 5.33501 23.4219 5.67787 23.0793H5.67764C6.02051 22.7364 6.57806 22.7367 6.9207 23.0793C7.26425 23.4229 7.26425 23.9786 6.9207 24.3221ZM15 1.75781C15.4845 1.75781 15.8789 2.15218 15.8789 2.63672C15.8789 3.12126 15.4845 3.51562 15 3.51562C14.5155 3.51562 14.1211 3.12126 14.1211 2.63672C14.1211 2.15218 14.5155 1.75781 15 1.75781V1.75781ZM15 28.2422C14.5155 28.2422 14.1211 27.8478 14.1211 27.3633C14.1211 26.8787 14.5155 26.4844 15 26.4844C15.4845 26.4844 15.8789 26.8787 15.8789 27.3633C15.8789 27.8478 15.4845 28.2422 15 28.2422V28.2422ZM17.6367 20.5579C16.8372 20.9388 15.943 21.1523 15 21.1523C14.057 21.1523 13.1628 20.9388 12.3633 20.5579V20.2734C12.3633 18.8196 13.5461 17.6367 15 17.6367C16.4539 17.6367 17.6367 18.8196 17.6367 20.2734V20.5579ZM13.2422 14.1211C13.2422 13.1518 14.0307 12.3633 15 12.3633C15.9693 12.3633 16.7578 13.1518 16.7578 14.1211C16.7578 15.0904 15.9693 15.8789 15 15.8789C14.0307 15.8789 13.2422 15.0904 13.2422 14.1211V14.1211ZM19.3053 19.3904C19.0714 18.2474 18.392 17.2648 17.4575 16.6319C18.1098 15.9933 18.5156 15.1039 18.5156 14.1211C18.5156 12.1825 16.9386 10.6055 15 10.6055C13.0614 10.6055 11.4844 12.1825 11.4844 14.1211C11.4844 15.1039 11.8902 15.9933 12.5425 16.6319C11.608 17.2648 10.9286 18.2474 10.6947 19.3904C9.55559 18.273 8.84766 16.7178 8.84766 15C8.84766 11.6075 11.6075 8.84766 15 8.84766C18.3925 8.84766 21.1523 11.6075 21.1523 15C21.1523 16.7178 20.4444 18.273 19.3053 19.3904ZM23.0793 23.0793C23.4219 22.7367 23.9795 22.7364 24.3221 23.0793C24.665 23.4219 24.665 23.9795 24.3224 24.3224C23.9788 24.6657 23.4229 24.6659 23.0793 24.3224C22.7357 23.9786 22.7357 23.4229 23.0793 23.0793ZM27.3633 15.8789C26.8787 15.8789 26.4844 15.4845 26.4844 15C26.4844 14.5155 26.8787 14.1211 27.3633 14.1211C27.8478 14.1211 28.2422 14.5155 28.2422 15C28.2422 15.4845 27.8478 15.8789 27.3633 15.8789Z"/>
</svg>
