<svg width="30" height="30" viewBox="0 0 30 30" fill="#939598" xmlns="http://www.w3.org/2000/svg">
<path d="M25.6123 4.38848C19.7608 -1.46283 10.2404 -1.46283 4.38912 4.38848C-1.46206 10.2397 -1.46206 19.7603 4.38912 25.6115C7.31478 28.5372 11.1578 30 15.0008 30C18.8437 30 22.6866 28.5372 25.6124 25.6115C31.4635 19.7603 31.4635 10.2397 25.6123 4.38848ZM5.90507 24.0957C0.889749 19.0804 0.889749 10.9198 5.90507 5.90443C8.41279 3.39683 11.7067 2.14291 15.0006 2.14291C18.2946 2.14291 21.5886 3.39671 24.0962 5.90443C29.1115 10.9198 29.1115 19.0804 24.0962 24.0957C19.0809 29.1109 10.9204 29.1109 5.90507 24.0957Z"/>
<path d="M23.2041 13.9281H16.0719V6.79593C16.0719 6.20387 15.5921 5.724 15 5.724C14.4079 5.724 13.9281 6.20387 13.9281 6.79593V13.9281H6.79593C6.20387 13.9281 5.724 14.408 5.724 15C5.724 15.5921 6.20387 16.0719 6.79593 16.0719H13.9281V23.2041C13.9281 23.7962 14.4079 24.276 15 24.276C15.5921 24.276 16.0719 23.7962 16.0719 23.2041V16.0719H23.2041C23.7962 16.0719 24.276 15.5921 24.276 15C24.276 14.408 23.7962 13.9281 23.2041 13.9281Z"/>
</svg>
