<svg width="30" height="30" viewBox="0 0 30 30" fill="#939598" xmlns="http://www.w3.org/2000/svg">
<path d="M27.0717 3.22266H25.2926C25.2402 1.92146 24.1653 0.878906 22.8516 0.878906C21.5378 0.878906 20.463 1.92146 20.4105 3.22266H17.441C17.3886 1.92146 16.3138 0.878906 15 0.878906C13.6862 0.878906 12.6114 1.92146 12.559 3.22266H9.64806C9.59564 1.92146 8.52081 0.878906 7.20703 0.878906C5.89325 0.878906 4.81842 1.92146 4.76601 3.22266H2.92831C1.31355 3.22266 0 4.53621 0 6.15097V24.679C0 27.1282 1.99265 29.1211 4.44214 29.1211H25.5579C28.0074 29.1211 30 27.1282 30 24.679V6.15097C30 4.53621 28.6864 3.22266 27.0717 3.22266ZM22.1665 3.32176C22.1665 2.94411 22.4737 2.63672 22.8516 2.63672C23.2294 2.63672 23.5366 2.94411 23.5366 3.32176V4.66942C23.5366 5.0473 23.2292 5.35469 22.8516 5.35469C22.4739 5.35469 22.1665 5.0473 22.1665 4.66942V3.32176ZM14.315 3.32176C14.315 2.94411 14.6221 2.63672 15 2.63672C15.3779 2.63672 15.685 2.94411 15.685 3.32176V4.66942C15.685 5.0473 15.3777 5.35469 15 5.35469C14.6223 5.35469 14.315 5.0473 14.315 4.66942V3.32176ZM6.52199 3.32176C6.52199 2.94411 6.82915 2.63672 7.20703 2.63672C7.58492 2.63672 7.89207 2.94411 7.89207 3.32176V4.66942C7.89207 5.0473 7.58469 5.35469 7.20703 5.35469C6.82938 5.35469 6.52199 5.0473 6.52199 4.66942V3.32176ZM2.92831 4.98047H4.78386C4.93698 6.18118 5.96535 7.1125 7.20703 7.1125C8.44872 7.1125 9.47708 6.18118 9.6302 4.98047H12.5766C12.7299 6.18118 13.7583 7.1125 15 7.1125C16.2417 7.1125 17.2701 6.18118 17.4232 4.98047H20.4282C20.5815 6.18118 21.6099 7.1125 22.8516 7.1125C24.0932 7.1125 25.1216 6.18118 25.2747 4.98047H27.0717C27.7171 4.98047 28.2422 5.50552 28.2422 6.15097V8.54828H1.75781V6.15097C1.75781 5.50552 2.28287 4.98047 2.92831 4.98047V4.98047ZM25.5579 27.3633H4.44214C2.96196 27.3633 1.75781 26.1591 1.75781 24.679V10.3061H28.2422V24.679C28.2422 26.1591 27.038 27.3633 25.5579 27.3633Z"/>
<path d="M8.77097 12.5942H5.64307C5.15761 12.5942 4.76416 12.9877 4.76416 13.4731C4.76416 13.9586 5.15761 14.3521 5.64307 14.3521H8.77119C9.25642 14.3521 9.6501 13.9586 9.6501 13.4731C9.6501 12.9877 9.25642 12.5942 8.77097 12.5942Z"/>
<path d="M13.436 14.3521H16.5642C17.0494 14.3521 17.4431 13.9586 17.4431 13.4731C17.4431 12.9877 17.0494 12.5942 16.5642 12.5942H13.436C12.9506 12.5942 12.5571 12.9877 12.5571 13.4731C12.5571 13.9586 12.9506 14.3521 13.436 14.3521Z"/>
<path d="M24.4155 12.5942H21.2874C20.8021 12.5942 20.4084 12.9877 20.4084 13.4731C20.4084 13.9586 20.8021 14.3521 21.2874 14.3521H24.4155C24.9009 14.3521 25.2944 13.9586 25.2944 13.4731C25.2944 12.9877 24.9009 12.5942 24.4155 12.5942V12.5942Z"/>
<path d="M8.74167 16.1133H5.61377C5.12831 16.1133 4.73486 16.5067 4.73486 16.9922C4.73486 17.4776 5.12831 17.8711 5.61377 17.8711H8.7419C9.22713 17.8711 9.6208 17.4776 9.6208 16.9922C9.6208 16.5067 9.22713 16.1133 8.74167 16.1133Z"/>
<path d="M13.4067 17.8711H16.5349C17.0201 17.8711 17.4138 17.4776 17.4138 16.9922C17.4138 16.5067 17.0201 16.1133 16.5349 16.1133H13.4067C12.9213 16.1133 12.5278 16.5067 12.5278 16.9922C12.5278 17.4776 12.9213 17.8711 13.4067 17.8711Z"/>
<path d="M24.3862 16.1133H21.2581C20.7728 16.1133 20.3792 16.5067 20.3792 16.9922C20.3792 17.4776 20.7728 17.8711 21.2581 17.8711H24.3862C24.8716 17.8711 25.2651 17.4776 25.2651 16.9922C25.2651 16.5067 24.8716 16.1133 24.3862 16.1133V16.1133Z"/>
<path d="M8.74167 19.6289H5.61377C5.12831 19.6289 4.73486 20.0224 4.73486 20.5078C4.73486 20.9933 5.12831 21.3867 5.61377 21.3867H8.7419C9.22713 21.3867 9.6208 20.9933 9.6208 20.5078C9.6208 20.0224 9.22713 19.6289 8.74167 19.6289Z"/>
<path d="M13.4067 21.3867H16.5349C17.0201 21.3867 17.4138 20.9933 17.4138 20.5078C17.4138 20.0224 17.0201 19.6289 16.5349 19.6289H13.4067C12.9213 19.6289 12.5278 20.0224 12.5278 20.5078C12.5278 20.9933 12.9213 21.3867 13.4067 21.3867Z"/>
<path d="M24.3862 19.6289H21.2581C20.7728 19.6289 20.3792 20.0224 20.3792 20.5078C20.3792 20.9933 20.7728 21.3867 21.2581 21.3867H24.3862C24.8716 21.3867 25.2651 20.9933 25.2651 20.5078C25.2651 20.0224 24.8716 19.6289 24.3862 19.6289V19.6289Z"/>
<path d="M8.74167 23.1445H5.61377C5.12831 23.1445 4.73486 23.538 4.73486 24.0234C4.73486 24.5089 5.12831 24.9023 5.61377 24.9023H8.7419C9.22713 24.9023 9.6208 24.5089 9.6208 24.0234C9.6208 23.538 9.22713 23.1445 8.74167 23.1445Z"/>
<path d="M24.3862 23.1445H13.4067C12.9213 23.1445 12.5278 23.538 12.5278 24.0234C12.5278 24.5089 12.9213 24.9023 13.4067 24.9023H24.3864C24.8717 24.9023 25.2653 24.5089 25.2653 24.0234C25.2653 23.538 24.8717 23.1445 24.3862 23.1445V23.1445Z"/>
</svg>
