<svg width="30" height="30" viewBox="0 0 30 30" fill="#939598" xmlns="http://www.w3.org/2000/svg">
<path d="M21.0251 2.88873H2.30919C1.81435 2.88873 1.41312 3.28973 1.41312 3.78458V10.8115H0.837251C0.342408 10.8115 -0.0585938 11.2127 -0.0585938 11.7073C-0.0585938 12.2022 0.342408 12.6032 0.837251 12.6032H1.41312V14.6368H0.837251C0.342408 14.6368 -0.0585938 15.0378 -0.0585938 15.5326C-0.0585938 16.0275 0.342408 16.4285 0.837251 16.4285H1.41312V18.4621H0.837251C0.342408 18.4621 -0.0585938 18.8631 -0.0585938 19.358C-0.0585938 19.8528 0.342408 20.2538 0.837251 20.2538H1.41312V28.3649C1.41312 28.8598 1.81435 29.2608 2.30919 29.2608H21.0251C21.5197 29.2608 21.921 28.8598 21.921 28.3649V3.78458C21.921 3.28973 21.5197 2.88873 21.0251 2.88873ZM20.1293 27.4691H3.20504V20.2538H3.78091C4.27575 20.2538 4.67675 19.8528 4.67675 19.358C4.67675 18.8631 4.27575 18.4621 3.78091 18.4621H3.20504V16.4285H3.78091C4.27575 16.4285 4.67675 16.0275 4.67675 15.5326C4.67675 15.0378 4.27575 14.6368 3.78091 14.6368H3.20504V12.6032H3.78091C4.27575 12.6032 4.67675 12.2022 4.67675 11.7073C4.67675 11.2127 4.27575 10.8115 3.78091 10.8115H3.20504V4.68042H20.1293V27.4691Z"/>
<path d="M6.34456 12.1733H16.9894C17.4843 12.1733 17.8853 11.7723 17.8853 11.2775V6.97037C17.8853 6.47575 17.4843 6.07452 16.9894 6.07452H6.34456C5.84972 6.07452 5.44849 6.47575 5.44849 6.97037V11.2775C5.44849 11.7723 5.84972 12.1733 6.34456 12.1733ZM7.24041 7.86621H16.0936V10.3816H7.24041V7.86621Z"/>
<path d="M27.1345 2.81635H26.8115C25.2636 2.81635 24.0043 4.07566 24.0043 5.62336V21.5156C24.0043 21.5387 24.0061 21.5625 24.0079 21.5854C24.0127 21.6495 24.024 21.7136 24.0427 21.7751L24.0434 21.7776C24.0441 21.7802 24.0448 21.7827 24.0457 21.785L26.1155 28.6244C26.3716 29.4706 27.5744 29.4701 27.8303 28.6244C27.8964 28.4061 29.8543 21.9369 29.9046 21.7683C29.9277 21.6895 29.9378 21.611 29.9399 21.5456C29.9403 21.5355 29.9415 21.5256 29.9415 21.5156C29.9415 20.7451 29.9415 6.31069 29.9415 5.62336C29.9415 4.07566 28.6822 2.81635 27.1345 2.81635ZM25.7962 8.10581H28.1498V20.6197H25.7962V8.10581ZM25.7962 5.62336C25.7962 5.06351 26.2514 4.60804 26.8115 4.60804H27.1345C27.6943 4.60804 28.1498 5.06351 28.1498 5.62336V6.31412H25.7962V5.62336ZM26.9729 25.272L26.1072 22.4114H27.8385L26.9729 25.272Z"/>
</svg>
