<svg width="30" height="30" viewBox="0 0 30 30" fill="#0071BC" xmlns="http://www.w3.org/2000/svg">
<path d="M27.3633 4.45312H2.63672C1.18286 4.45312 0 5.63599 0 7.08984V22.9102C0 24.364 1.18286 25.5469 2.63672 25.5469H27.3633C28.8171 25.5469 30 24.364 30 22.9102V7.08984C30 5.63599 28.8171 4.45312 27.3633 4.45312ZM28.2422 22.9102C28.2422 23.3947 27.8478 23.7891 27.3633 23.7891H2.63672C2.15218 23.7891 1.75781 23.3947 1.75781 22.9102V7.08984C1.75781 6.6053 2.15218 6.21094 2.63672 6.21094H27.3633C27.8478 6.21094 28.2422 6.6053 28.2422 7.08984V22.9102Z"/>
<path d="M10.9337 14.7608C11.4221 14.1957 11.7188 13.4601 11.7188 12.6562C11.7188 10.8792 10.2731 9.43359 8.49609 9.43359C6.71906 9.43359 5.27344 10.8792 5.27344 12.6562C5.27344 13.4601 5.57007 14.1957 6.0585 14.7608C4.54239 15.6155 3.51562 17.2405 3.51562 19.1016V19.6875C3.51562 20.173 3.90907 20.5664 4.39453 20.5664H12.5977C13.0831 20.5664 13.4766 20.173 13.4766 19.6875V19.1016C13.4766 17.2405 12.4498 15.6155 10.9337 14.7608ZM7.03125 12.6562C7.03125 11.8485 7.68837 11.1914 8.49609 11.1914C9.30382 11.1914 9.96094 11.8485 9.96094 12.6562C9.96094 13.464 9.30382 14.1211 8.49609 14.1211C7.68837 14.1211 7.03125 13.464 7.03125 12.6562ZM5.28671 18.8086C5.43503 17.1684 6.8177 15.8789 8.49609 15.8789C10.1745 15.8789 11.5572 17.1684 11.7055 18.8086H5.28671Z"/>
<path d="M25.6055 17.6367H16.2305C15.745 17.6367 15.3516 18.0302 15.3516 18.5156C15.3516 19.0011 15.745 19.3945 16.2305 19.3945H25.6055C26.0909 19.3945 26.4844 19.0011 26.4844 18.5156C26.4844 18.0302 26.0909 17.6367 25.6055 17.6367Z"/>
<path d="M25.6055 14.1211H16.2305C15.745 14.1211 15.3516 14.5145 15.3516 15C15.3516 15.4855 15.745 15.8789 16.2305 15.8789H25.6055C26.0909 15.8789 26.4844 15.4855 26.4844 15C26.4844 14.5145 26.0909 14.1211 25.6055 14.1211Z"/>
<path d="M16.2305 12.3633H19.7461C20.2316 12.3633 20.625 11.9698 20.625 11.4844C20.625 10.9989 20.2316 10.6055 19.7461 10.6055H16.2305C15.745 10.6055 15.3516 10.9989 15.3516 11.4844C15.3516 11.9698 15.745 12.3633 16.2305 12.3633Z"/>
</svg>
