<svg width="30" height="30" viewBox="0 0 30 30" fill="#939598">
<path d="M15 0C6.70969 0 0 6.70881 0 15C0 23.2903 6.70881 30 15 30C23.2903 30 30 23.2912 30 15C30 6.70969 23.2912 0 15 0ZM15 28C7.83182 28 1.99998 22.1682 1.99998 15C1.99998 7.83176 7.83182 1.99998 15 1.99998C22.1682 1.99998 28 7.83182 28 15C28 22.1682 22.1682 28 15 28Z"/>
<path d="M14.6195 18.2783C13.9093 18.2783 13.3343 18.8702 13.3343 19.5805C13.3343 20.2738 13.8923 20.8827 14.6195 20.8827C15.3467 20.8827 15.9217 20.2738 15.9217 19.5805C15.9217 18.8702 15.3298 18.2783 14.6195 18.2783Z"/>
<path d="M14.8393 8.4187C12.5563 8.4187 11.5077 9.77169 11.5077 10.6849C11.5077 11.3445 12.0659 11.6489 12.5224 11.6489C13.4357 11.6489 13.0636 10.3467 14.7886 10.3467C15.6343 10.3467 16.3107 10.7187 16.3107 11.4967C16.3107 12.4099 15.3637 12.9342 14.8056 13.4077C14.3151 13.8305 13.6724 14.5239 13.6724 15.9783C13.6724 16.8577 13.9092 17.1114 14.6025 17.1114C15.4313 17.1114 15.6004 16.7394 15.6004 16.418C15.6004 15.5387 15.6173 15.0313 16.5474 14.3041C17.0041 13.9489 18.4415 12.7989 18.4415 11.2092C18.4415 9.61952 17.0041 8.4187 14.8393 8.4187Z" />
</svg>
