<svg width="30" height="30" viewBox="0 0 30 30" fill="#939598" xmlns="http://www.w3.org/2000/svg">
<path d="M29.8516 14.4905C29.7845 14.3909 28.1833 12.0234 25.5814 9.62699C24.041 8.20815 22.4674 7.07496 20.9044 6.25831C18.9093 5.21599 16.923 4.6875 15.0009 4.6875C13.079 4.6875 11.0927 5.21599 9.09734 6.25831C7.53431 7.07496 5.96076 8.20815 4.42039 9.62699C1.81869 12.0234 0.217212 14.3909 0.15015 14.4905C-0.0487479 14.7869 -0.0487479 15.1742 0.15015 15.4706C0.217212 15.5701 1.81869 17.9377 4.42039 20.3341C5.96076 21.7527 7.53431 22.8861 9.09734 23.7025C11.0927 24.7448 13.079 25.2733 15.0009 25.2733C16.923 25.2733 18.9093 24.7448 20.9044 23.7025C22.4674 22.8861 24.041 21.7527 25.5814 20.3341C28.1833 17.9377 29.7845 15.5701 29.8516 15.4706C30.0507 15.1742 30.0507 14.7869 29.8516 14.4905ZM15.0009 23.5155C14.7381 23.5155 14.477 23.5032 14.2176 23.48C14.2126 23.4796 14.208 23.4784 14.203 23.478C9.792 23.0697 6.4659 19.4165 6.4659 14.9805C6.4659 10.5443 9.792 6.89117 14.203 6.48285C14.208 6.48239 14.2128 6.48124 14.2179 6.48079C14.4774 6.45813 14.7383 6.44531 15.0009 6.44531C15.2636 6.44531 15.5248 6.45767 15.7843 6.48079C15.7891 6.48124 15.7939 6.48239 15.7988 6.48285C20.2098 6.8914 23.5361 10.5443 23.5361 14.9805C23.5361 19.4165 20.2098 23.0697 15.7988 23.478C15.7939 23.4784 15.7891 23.4796 15.7843 23.48C15.525 23.5032 15.2639 23.5155 15.0009 23.5155ZM1.96129 14.9808C2.53624 14.2071 3.78593 12.6267 5.49269 11.0337C4.9784 12.2724 4.70809 13.6104 4.70809 14.9805C4.70809 16.3527 4.97931 17.693 5.49498 18.9331C3.78982 17.3435 2.53715 15.7567 1.96129 14.9808ZM24.5068 18.9331C25.0227 17.6928 25.2939 16.3527 25.2939 14.9805C25.2939 13.6084 25.0227 12.2681 24.5068 11.0277C26.2124 12.6176 27.4651 14.2044 28.0407 14.9805C27.4648 15.7564 26.2124 17.3433 24.5068 18.9331Z"/>
<path d="M15.8789 20.4971C18.2566 20.1196 20.1393 18.2371 20.5168 15.8595H21.1192C21.6046 15.8595 21.9981 15.466 21.9981 14.9805C21.9981 14.4951 21.6046 14.1016 21.1192 14.1016H20.5168C20.1393 11.724 18.2566 9.84123 15.8789 9.46381V8.86139C15.8789 8.37593 15.4855 7.98248 15 7.98248C14.5146 7.98248 14.1211 8.37593 14.1211 8.86139V9.46381C11.7435 9.84123 9.86095 11.724 9.48352 14.1016H8.8811C8.39565 14.1016 8.0022 14.4951 8.0022 14.9805C8.0022 15.466 8.39565 15.8595 8.8811 15.8595H9.48352C9.86095 18.2371 11.7435 20.1196 14.1211 20.4971V21.0997C14.1211 21.5849 14.5146 21.9786 15 21.9786C15.4855 21.9786 15.8789 21.5849 15.8789 21.0997V20.4971ZM11.275 15.8595H11.705C12.1905 15.8595 12.584 15.4658 12.584 14.9805C12.584 14.4951 12.1905 14.1016 11.705 14.1016H11.275C11.6066 12.6956 12.7151 11.5869 14.1211 11.2553V11.6856C14.1211 12.171 14.5146 12.5645 15 12.5645C15.4855 12.5645 15.8789 12.171 15.8789 11.6856V11.2553C17.285 11.5869 18.3934 12.6956 18.7253 14.1016H18.295C17.8096 14.1016 17.4161 14.4951 17.4161 14.9805C17.4161 15.4658 17.8096 15.8595 18.295 15.8595H18.7253C18.3934 17.2655 17.285 18.3739 15.8789 18.7056V18.2755C15.8789 17.7901 15.4855 17.3966 15 17.3966C14.5146 17.3966 14.1211 17.7901 14.1211 18.2755V18.7056C12.7151 18.3739 11.6066 17.2655 11.275 15.8595Z"/>
</svg>
