<svg width="30" height="30" viewBox="0 0 30 30" fill="#939598" xmlns="http://www.w3.org/2000/svg">
<path d="M3.57143 11.4286C1.60214 11.4286 0 13.0307 0 15C0 16.9693 1.60214 18.5714 3.57143 18.5714C5.54071 18.5714 7.14286 16.9693 7.14286 15C7.14286 13.0307 5.54071 11.4286 3.57143 11.4286Z"/>
<path d="M15 11.4286C13.0307 11.4286 11.4286 13.0307 11.4286 15C11.4286 16.9693 13.0307 18.5714 15 18.5714C16.9693 18.5714 18.5714 16.9693 18.5714 15C18.5714 13.0307 16.9693 11.4286 15 11.4286Z"/>
<path d="M26.4286 11.4286C24.4593 11.4286 22.8572 13.0307 22.8572 15C22.8572 16.9693 24.4593 18.5714 26.4286 18.5714C28.3979 18.5714 30 16.9693 30 15C30 13.0307 28.3979 11.4286 26.4286 11.4286Z"/>
</svg>
