<svg width="30" height="30" viewBox="0 0 30 30" fill="#ffffff" xmlns="http://www.w3.org/2000/svg">
<path d="M25.7608 20.3856V14.6739C25.7608 9.64676 22.2956 5.4143 17.6284 4.23832C17.8241 3.84533 17.9347 3.40289 17.9347 2.93484C17.9347 1.31654 16.6182 0 15 0C13.3817 0 12.0652 1.31654 12.0652 2.93479C12.0652 3.40283 12.1759 3.84527 12.3716 4.23826C7.70433 5.41424 4.2391 9.64676 4.2391 14.6739V20.3856C3.10044 20.7894 2.28259 21.8768 2.28259 23.1521C2.28259 24.7703 3.59914 26.0869 5.21738 26.0869H10.2071C10.6615 28.3169 12.6378 30 15 30C17.3621 30 19.3384 28.3169 19.7929 26.0869H24.7826C26.4008 26.0869 27.7174 24.7704 27.7174 23.1521C27.7173 21.8769 26.8995 20.7895 25.7608 20.3856ZM15 1.9565C15.5394 1.9565 15.9782 2.39537 15.9782 2.93479C15.9782 3.4742 15.5394 3.91307 15 3.91307C14.4605 3.91307 14.0217 3.4742 14.0217 2.93479C14.0217 2.39537 14.4605 1.9565 15 1.9565ZM15 28.0435C13.7246 28.0435 12.6373 27.2191 12.2335 26.0804H17.7665C17.3626 27.2191 16.2753 28.0435 15 28.0435ZM24.7826 24.1304H5.21738C4.67796 24.1304 4.2391 23.6916 4.2391 23.1521C4.2391 22.6127 4.67796 22.1739 5.21738 22.1739H7.17394C7.71417 22.1739 8.15222 21.7359 8.15222 21.1956C8.15222 20.6553 7.71423 20.2173 7.17394 20.2173H6.1956V14.6738C6.1956 9.81908 10.1452 5.86945 15 5.86945C19.8547 5.86945 23.8043 9.81908 23.8043 14.6738V20.2173H22.8252C22.285 20.2173 21.8469 20.6553 21.8469 21.1956C21.8469 21.7359 22.2849 22.1739 22.8252 22.1739H24.7826C25.322 22.1739 25.7609 22.6127 25.7609 23.1521C25.7609 23.6916 25.3219 24.1304 24.7826 24.1304Z"/>
<path d="M15 7.82605C11.2241 7.82605 8.1521 10.898 8.1521 14.6739C8.1521 15.2141 8.59009 15.6522 9.13038 15.6522C9.67067 15.6522 10.1087 15.2142 10.1087 14.6739C10.1087 11.9768 12.3029 9.78261 15 9.78261C15.5402 9.78261 15.9782 9.34462 15.9782 8.80433C15.9782 8.26404 15.5402 7.82605 15 7.82605Z"/>
</svg>
