<svg width="30" height="30" viewBox="0 0 30 30" fill="#939598" xmlns="http://www.w3.org/2000/svg">
<path d="M26.9269 4.08131H3.07313C1.3786 4.08131 0 5.45997 0 7.15444V22.8455C0 24.54 1.3786 25.9186 3.07313 25.9186H26.9268C28.6213 25.9186 29.9999 24.54 29.9999 22.8455V7.15444C30 5.45997 28.6213 4.08131 26.9269 4.08131ZM1.78021 22.8455V20.0981H4.86954V24.1384H3.07313C2.36021 24.1384 1.78021 23.5584 1.78021 22.8455ZM28.2198 22.8455C28.2198 23.5584 27.6398 24.1384 26.9269 24.1384H6.64975V19.208C6.64975 18.7164 6.25122 18.3179 5.75965 18.3179H1.78021V7.15444C1.78021 6.44152 2.36021 5.86153 3.07313 5.86153H26.9268C27.6397 5.86153 28.2197 6.44152 28.2197 7.15444V22.8455H28.2198Z"/>
<path d="M17.3789 12.7227C17.0299 13.0689 17.0276 13.6324 17.3738 13.9815C17.912 14.5241 17.9037 15.408 17.3553 15.952C17.0063 16.2982 17.004 16.8618 17.3502 17.2108C17.5243 17.3863 17.7531 17.4741 17.9821 17.4741C18.2087 17.4741 18.4354 17.3881 18.6089 17.2159C19.8542 15.9807 19.8671 13.9674 18.6376 12.7278C18.2915 12.3789 17.7279 12.3765 17.3789 12.7227Z"/>
<path d="M21.1345 11.2694C20.7882 10.9203 20.2247 10.9181 19.8757 11.2643C19.5267 11.6105 19.5244 12.174 19.8706 12.5231C21.2002 13.8635 21.1824 16.0447 19.831 17.3852C19.482 17.7314 19.4797 18.295 19.8259 18.644C20 18.8195 20.2288 18.9073 20.4578 18.9073C20.6844 18.9073 20.9111 18.8213 21.0847 18.6491C23.1331 16.6172 23.1554 13.3067 21.1345 11.2694Z"/>
<path d="M21.9909 9.06401C21.6419 9.4102 21.6396 9.97376 21.9858 10.3228C24.5129 12.8705 24.4808 17.0143 21.9143 19.5601C21.5652 19.9063 21.563 20.4699 21.9092 20.8189C22.0832 20.9944 22.3121 21.0822 22.5411 21.0822C22.7676 21.0822 22.9944 20.9962 23.1679 20.824C26.4313 17.5869 26.468 12.3137 23.2497 9.06911C22.9035 8.72013 22.34 8.71782 21.9909 9.06401Z"/>
<path d="M12.8754 8.78159H4.63278C4.14121 8.78159 3.74268 9.18012 3.74268 9.67169C3.74268 10.1633 4.14121 10.5618 4.63278 10.5618H12.8754C13.3669 10.5618 13.7655 10.1633 13.7655 9.67169C13.7655 9.18012 13.367 8.78159 12.8754 8.78159Z"/>
<path d="M8.75407 12.2477H4.97141C4.47983 12.2477 4.0813 12.6463 4.0813 13.1378C4.0813 13.6294 4.47983 14.0279 4.97141 14.0279H8.75407C9.24564 14.0279 9.64417 13.6294 9.64417 13.1378C9.64417 12.6463 9.2457 12.2477 8.75407 12.2477Z"/>
</svg>