<svg width="20" height="20" viewBox="0 0 30 30" fill="#939598" xmlns="http://www.w3.org/2000/svg">
<path d="M29.6005 27.6722L20.3026 18.3743C21.8214 16.4419 22.7283 14.007 22.7283 11.3642C22.7283 5.09791 17.6304 0 11.3641 0C5.09791 0 0 5.09791 0 11.3641C0 17.6303 5.09791 22.7282 11.3641 22.7282C14.0068 22.7282 16.4418 21.8214 18.3742 20.3026L27.6722 29.6005C27.9384 29.8669 28.2874 30 28.6364 30C28.9854 30 29.3344 29.8669 29.6005 29.6005C30.1331 29.0681 30.1331 28.2046 29.6005 27.6722ZM2.72727 11.3641C2.72727 6.60173 6.60173 2.72727 11.3641 2.72727C16.1265 2.72727 20.001 6.60173 20.001 11.3641C20.001 16.1265 16.1265 20.0009 11.3641 20.0009C6.60173 20.0009 2.72727 16.1265 2.72727 11.3641Z" />
</svg>
