<svg width="30" height="30" viewBox="0 0 30 30" fill="#939598" xmlns="http://www.w3.org/2000/svg">
<path d="M25.6069 9.0691C22.7737 6.23046 19.0068 4.66711 15.0001 4.66711C10.9935 4.66711 7.22656 6.23046 4.39343 9.0691C1.5603 11.908 0 15.6821 0 19.6965C0 20.8009 0.120164 21.9028 0.357288 22.9718C0.494161 23.5882 0.672004 24.2019 0.885782 24.7958C1.01602 25.158 1.35682 25.3834 1.72006 25.3834C1.82009 25.3834 1.92148 25.3662 2.02105 25.3304C2.48179 25.1637 2.72052 24.6546 2.55435 24.1929C2.36597 23.6696 2.20942 23.1291 2.08903 22.586C1.94368 21.9304 1.84915 21.2605 1.80452 20.5851H4.53145C5.02126 20.5851 5.41837 20.1872 5.41837 19.6965C5.41837 19.2057 5.02126 18.8078 4.53145 18.8078H1.80429C1.92171 17.0408 2.38612 15.3676 3.12999 13.8559L5.49047 15.2216C5.63009 15.3023 5.78253 15.3408 5.93313 15.3408C6.23961 15.3408 6.53785 15.1814 6.70196 14.8964C6.94686 14.4712 6.80152 13.9277 6.3774 13.6823L4.01898 12.318C4.97892 10.8884 6.20917 9.65572 7.6358 8.69391L8.99766 11.0569C9.16177 11.3422 9.46001 11.5016 9.76648 11.5016C9.91686 11.5016 10.0695 11.4631 10.2091 11.3823C10.6335 11.137 10.7788 10.5935 10.5337 10.1683L9.17093 7.8032C10.6797 7.05788 12.3494 6.59257 14.113 6.47515V9.20738C14.113 9.69815 14.5101 10.096 14.9999 10.096C15.4897 10.096 15.8871 9.69815 15.8871 9.20738V6.47515C17.6504 6.5928 19.3203 7.05788 20.8291 7.8032L19.4661 10.1685C19.2212 10.5935 19.3666 11.137 19.7909 11.3823C19.9305 11.4631 20.083 11.5016 20.2336 11.5016C20.5401 11.5016 20.8381 11.3422 21.0024 11.0572L22.364 8.69391C23.7909 9.65572 25.0212 10.8884 25.9811 12.318L23.6227 13.6823C23.1983 13.9277 23.053 14.4712 23.2979 14.8964C23.4622 15.1814 23.7605 15.3408 24.0669 15.3408C24.2173 15.3408 24.37 15.3025 24.5096 15.2216L26.8701 13.8561C27.614 15.3676 28.0784 17.0408 28.1958 18.8078H25.4686C24.9786 18.8078 24.5815 19.2057 24.5815 19.6965C24.5815 20.1872 24.9786 20.5851 25.4686 20.5851H28.1955C28.1532 21.2245 28.0665 21.8593 27.9339 22.4808C27.8243 22.994 27.6826 23.5059 27.5126 24.0019C27.3535 24.4663 27.6002 24.9717 28.0635 25.1311C28.5267 25.2903 29.0314 25.0433 29.1905 24.5791C29.3835 24.0159 29.5444 23.435 29.6686 22.8525C29.8886 21.8214 30.0001 20.7596 30.0001 19.6965C30.0003 15.6821 28.44 11.908 25.6069 9.0691V9.0691Z"/>
<path d="M19.9764 13.4431L16.1945 17.5261C15.8317 17.319 15.4124 17.2 14.9659 17.2C13.5919 17.2 12.4742 18.32 12.4742 19.6965C12.4742 21.0731 13.5919 22.1929 14.9659 22.1929C16.3396 22.1929 17.4575 21.0731 17.4575 19.6965C17.4575 19.4226 17.4124 19.1591 17.3307 18.9124L21.2767 14.6521C21.6099 14.2923 21.5889 13.73 21.2297 13.3961C20.8706 13.0622 20.3096 13.0833 19.9764 13.4431V13.4431ZM14.9659 20.4156C14.5701 20.4156 14.2481 20.093 14.2481 19.6965C14.2481 19.2999 14.5701 18.9775 14.9659 18.9775C15.3616 18.9775 15.6837 19.2999 15.6837 19.6965C15.6837 20.093 15.3616 20.4156 14.9659 20.4156V20.4156Z"/>
</svg>