<svg width="30" height="30" viewBox="0 0 30 30" fill="#939598">
<path d="M2.93479 14.0217H0.978281C0.437988 14.0217 0 14.4598 0 15C0 15.5402 0.437988 15.9783 0.978281 15.9783H2.93479C3.47502 15.9783 3.91307 15.5403 3.91307 15C3.91307 14.4597 3.47502 14.0217 2.93479 14.0217Z"/>
<path d="M29.0217 14.0217H27.0652C26.525 14.0217 26.0869 14.4597 26.0869 15C26.0869 15.5403 26.5249 15.9783 27.0652 15.9783H29.0217C29.562 15.9783 30 15.5403 30 15C30 14.4597 29.562 14.0217 29.0217 14.0217Z"/>
<path d="M15.0001 26.0869C14.4598 26.0869 14.0218 26.5249 14.0218 27.0652V29.0217C14.0218 29.5619 14.4598 30 15.0001 30C15.5404 30 15.9783 29.562 15.9783 29.0217V27.0652C15.9783 26.525 15.5403 26.0869 15.0001 26.0869Z"/>
<path d="M15.0001 0C14.4598 0 14.0218 0.437988 14.0218 0.978281V2.93479C14.0218 3.47502 14.4598 3.91307 15.0001 3.91307C15.5404 3.91307 15.9783 3.47508 15.9783 2.93479V0.978281C15.9783 0.437988 15.5403 0 15.0001 0Z"/>
<path d="M22.858 26.654L21.8798 24.9596C21.6096 24.4918 21.0113 24.3314 20.5435 24.6016C20.0756 24.8717 19.9153 25.47 20.1854 25.9379L21.1637 27.6322C21.4339 28.1003 22.0324 28.2603 22.5 27.9903C22.9678 27.7202 23.1282 27.1219 22.858 26.654Z"/>
<path d="M9.81458 4.06208L8.8363 2.36772C8.56619 1.89985 7.96789 1.73948 7.50002 2.00966C7.03215 2.27977 6.87184 2.87807 7.14195 3.34595L8.12023 5.0403C8.39047 5.50841 8.98894 5.66843 9.45652 5.39837C9.92439 5.12825 10.0847 4.52995 9.81458 4.06208Z"/>
<path d="M27.6323 21.1637L25.938 20.1854C25.47 19.9152 24.8718 20.0756 24.6017 20.5435C24.3316 21.0114 24.4919 21.6097 24.9597 21.8798L26.6541 22.8581C27.1217 23.1281 27.7201 22.9681 27.9904 22.5C28.2605 22.0321 28.1002 21.4338 27.6323 21.1637Z"/>
<path d="M5.04033 8.12016L3.34598 7.14188C2.87805 6.87165 2.27975 7.03208 2.00969 7.49995C1.73957 7.96782 1.89989 8.56612 2.36776 8.83623L4.06211 9.81451C4.52975 10.0846 5.12817 9.92455 5.3984 9.45645C5.66846 8.98858 5.50821 8.39028 5.04033 8.12016Z"/>
<path d="M27.9904 7.49998C27.7203 7.03211 27.122 6.87174 26.6541 7.14192L24.9597 8.1202C24.4919 8.39031 24.3316 8.98861 24.6017 9.45648C24.8719 9.92459 25.4704 10.0845 25.938 9.81455L27.6323 8.83627C28.1002 8.56615 28.2605 7.96785 27.9904 7.49998Z"/>
<path d="M5.39834 20.5435C5.12828 20.0756 4.52992 19.9153 4.06205 20.1854L2.3677 21.1637C1.89982 21.4338 1.73951 22.0321 2.00963 22.5C2.27986 22.9681 2.87834 23.128 3.34592 22.858L5.04027 21.8798C5.5082 21.6096 5.66846 21.0113 5.39834 20.5435Z"/>
<path d="M22.5 2.00962C22.032 1.73939 21.4338 1.89982 21.1637 2.36769L20.1854 4.06204C19.9153 4.52991 20.0756 5.12821 20.5435 5.39833C21.0111 5.66839 21.6095 5.50843 21.8798 5.04026L22.858 3.34591C23.1282 2.8781 22.9678 2.2798 22.5 2.00962Z"/>
<path d="M9.45652 24.6016C8.98865 24.3314 8.39029 24.4917 8.12023 24.9597L7.14195 26.654C6.87184 27.1219 7.03215 27.7202 7.50002 27.9903C7.96765 28.2604 8.56607 28.1004 8.8363 27.6323L9.81458 25.9379C10.0847 25.47 9.92439 24.8717 9.45652 24.6016Z"/>
<path d="M15.0001 5.86957C9.96557 5.86957 5.86963 9.9655 5.86963 15C5.86963 20.0345 9.96557 24.1304 15.0001 24.1304C20.0345 24.1304 24.1305 20.0345 24.1305 15C24.1305 9.9655 20.0346 5.86957 15.0001 5.86957ZM15.0001 22.1739C11.0444 22.1739 7.82613 18.9557 7.82613 15C7.82613 11.0443 11.0444 7.82607 15.0001 7.82607C18.9557 7.82607 22.174 11.0443 22.174 15C22.174 18.9557 18.9558 22.1739 15.0001 22.1739Z"/>
<path d="M15 9.78259C12.1231 9.78259 9.78259 12.1231 9.78259 15C9.78259 15.5402 10.2206 15.9782 10.7609 15.9782C11.3011 15.9782 11.7392 15.5402 11.7392 15C11.7392 13.2019 13.202 11.7391 15 11.7391C15.5402 11.7391 15.9783 11.3011 15.9783 10.7608C15.9782 10.2206 15.5402 9.78259 15 9.78259Z"/>
</svg>
